<?xml version="1.0" encoding="utf-8" ?>
<svg baseProfile="full" height="200mm" version="1.1" viewBox="0,0,200,200" width="200mm" xmlns="http://www.w3.org/2000/svg" xmlns:ev="http://www.w3.org/2001/xml-events" xmlns:xlink="http://www.w3.org/1999/xlink"><defs /><rect fill="#1a1a1a" height="200" width="200" x="0" y="0" /><text alignment-baseline="middle" fill="#e1ed5e" style="dominant-baseline: central; font-size:9.0px; font-family:Arial;" text-anchor="middle" x="100.0" y="100.0">2021</text><line stroke="#e1ed5e" stroke-width="0.3" x1="100.0" x2="100.0" y1="15.0" y2="10.0" /><path d="M 100.0 14.0 a86.0,86.0 0 0,1 42.46469731375804,11.215312516191453" fill="none" id="id25" stroke="none" /><text fill="#e1ed5e" style="font-size:6.75px; font-family:Arial;" text-anchor="middle"><textPath startOffset="22.20632615414155" xlink:href="#id25">January</textPath></text><line stroke="#e1ed5e" stroke-width="0.3" x1="143.23703022742887" x2="145.7803849466894" y1="26.81831364943548" y2="22.513508569990506" /><path d="M 143.74570117128098 25.957352633546492 a86.0,86.0 0 0,1 28.547481713284135,27.462654790039103" fill="none" id="id26" stroke="none" /><text fill="#e1ed5e" style="font-size:6.75px; font-family:Arial;" text-anchor="middle"><textPath startOffset="19.985693538727396" xlink:href="#id26">February</textPath></text><path d="M 115.9244219780498 86.31012108654704 l 29.109426051405478 -25.024739889030318 a59.38744966204279,59.38744966204279 0 0,0 0.6597362713439366,0.7809196537392884 l -29.53587293623653 24.519961285661925" fill="#daff1c" stroke="none" /><path d="M 117.65298651832404 88.62581576622439 l 30.679581128754077 -19.76748849897405 a57.49644228952837,57.49644228952837 0 0,0 0.5288917125892325,0.8365796756966564 l -31.015300437589264 19.236461175563186" fill="#feff18" stroke="none" /><line stroke="#e1ed5e" stroke-width="0.3" x1="172.23445277983987" x2="176.4835382374775" y1="55.19839476539836" y2="52.563006222186495" /><path d="M 173.08426987136738 54.67131705675599 a86.0,86.0 0 0,1 12.851231095245387,41.99856678651699" fill="none" id="id27" stroke="none" /><text fill="#e1ed5e" style="font-size:6.75px; font-family:Arial;" text-anchor="middle"><textPath startOffset="22.20632615414155" xlink:href="#id27">March</textPath></text><path d="M 118.89224826269711 90.83032412892265 l 37.40470663490887 -18.155014222001565 a62.57783808526695,62.57783808526695 0 0,0 0.46200862105799645,0.9731079828362937 l -37.71167344980862 17.508463823524732" fill="#9fff22" stroke="none" /><path d="M 119.196687751892 91.48605970444005 l 38.5078454043377 -17.078649239938315 a63.12522305632598,63.12522305632598 0 0,0 0.4319848093546214,0.9970804993307063 l -38.796120923535 16.413269596021003" fill="#95ff23" stroke="none" /><path d="M 120.37134235888165 94.90015583598534 l 40.1549201943608 -10.05254498216224 a62.394097120650905,62.394097120650905 0 0,0 0.25185585205581174,1.044105104070193 l -40.32200884667743 9.359854646432641" fill="#a2ff22" stroke="none" /><path d="M 120.78858239683441 97.02765380044208 l 40.8546249338115 -5.841383834564398 a62.27011198900631,62.27011198900631 0 0,0 0.1425807677880012,1.0623923315828667 l -40.94912170065734 5.137273160916866" fill="#a4ff21" stroke="none" /><path d="M 120.83666639777658 97.38593545837742 l 45.738985597504616 -5.738185664525538 a67.09752247365688,67.09752247365688 0 0,0 0.13390635624784378,1.1472278850978772 l -45.83098230675605 4.950014041102809" fill="#52ff2b" stroke="none" /><path d="M 120.94382443527127 98.46500227214037 l 41.211451467122934 -3.0204361461938465 a62.32198889865133,62.32198889865133 0 0,0 0.06920533088313935,1.070575837757687 l -41.25733738901049 2.310601244183124" fill="#a3ff21" stroke="none" /><line stroke="#e1ed5e" stroke-width="0.3" x1="184.98032266829074" x2="189.97916517819016" y1="98.17113171792111" y2="98.06355123074" /><path d="M 185.9800911702706 98.14961562048488 a86.0,86.0 0 0,1 -9.607161424134198,41.387399972396054" fill="none" id="id28" stroke="none" /><text fill="#e1ed5e" style="font-size:6.75px; font-family:Arial;" text-anchor="middle"><textPath startOffset="21.466115282336823" xlink:href="#id28">April</textPath></text><path d="M 120.99513854157772 99.54816195383933 l 41.51508049420245 -0.8934493487411712 a62.52469337850521,62.52469337850521 0 0,0 0.013895347569738163,1.0762099824865097 l -41.5243088488899 0.17870310819419882" fill="#a0ff22" stroke="none" /><path d="M 120.76222939487914 103.15116336523771 l 49.02234323440761 7.440309474495758 a70.58375077853974,70.58375077853974 0 0,0 -0.1926541316774257,1.1996574618580595 l -48.88700734836889 -8.283046166047022" fill="#32ff49" stroke="none" /><path d="M 120.32669344350535 105.2749913415812 l 60.35355962575828 15.66238529371838 a83.35272626428491,83.35272626428491 0 0,0 -0.3723561710957065,1.3856758325427845 l -60.07501537832079 -16.698952059436714" fill="#4cdcff" stroke="none" /><path d="M 119.79798401119884 107.00284435728193 l 39.02396811397211 13.803363754162934 a62.39327165482394,62.39327165482394 0 0,0 -0.366859777422906,1.0094405474629213 l -38.78058407554398 -14.473052098631987" fill="#a2ff22" stroke="none" /><path d="M 119.54520255179757 107.68017299344265 l 38.57825233888865 15.159098554345697 a62.449726446664684,62.449726446664684 0 0,0 -0.401752132537399,0.9971158455052398 l -38.31159759209386 -15.82091376769375" fill="#a1ff22" stroke="none" /><line stroke="#e1ed5e" stroke-width="0.3" x1="174.80103733775053" x2="179.2010983576182" y1="140.37084112569926" y2="142.7455964860345" /><path d="M 175.68104954172406 140.8457921977663 a86.0,86.0 0 0,1 -30.038265399797805,32.042727171017184" fill="none" id="id29" stroke="none" /><text fill="#e1ed5e" style="font-size:6.75px; font-family:Arial;" text-anchor="middle"><textPath startOffset="22.206326154141568" xlink:href="#id29">May</textPath></text><path d="M 117.35343817320211 111.8261652097733 l 34.18150708685029 23.29429741204635 a62.36423235899907,62.36423235899907 0 0,0 -0.6121764897149438,0.8818858917144664 l -33.77546968997321 -23.879224565947837" fill="#a3ff22" stroke="none" /><path d="M 116.498646956653 112.99209946851258 l 39.25000385484996 30.90798630708815 a70.95864710102632,70.95864710102632 0 0,0 -0.7639275759220389,0.9531171101972811 l -38.71215836687306 -31.579031250863682" fill="#33ff51" stroke="none" /><path d="M 114.29624159901734 115.38237550388516 l 28.201166861410847 30.343705043412367 a62.42518857056352,62.42518857056352 0 0,0 -0.793395759719018,0.7247482152714264 l -27.674671552224968 -30.824646025270376" fill="#a2ff22" stroke="none" /><path d="M 112.92097659922987 116.55440617244103 l 26.206637829209736 33.57604773192252 a63.59270885501069,63.59270885501069 0 0,0 -0.8687105356085704,0.6660901949870712 l -25.62479856510767 -34.02217726873696" fill="#8dff24" stroke="none" /><line stroke="#e1ed5e" stroke-width="0.3" x1="143.8653032363475" x2="146.44561519142675" y1="172.8068346515853" y2="177.08958963109032" /><path d="M 144.38136562736335 173.6633856474863 a86.0,86.0 0 0,1 -40.68145358897372,12.25698825130547" fill="none" id="id30" stroke="none" /><text fill="#e1ed5e" style="font-size:6.75px; font-family:Arial;" text-anchor="middle"><textPath startOffset="21.466115282336833" xlink:href="#id30">June</textPath></text><path d="M 110.21172684928248 118.3499491758327 l 22.02118466873304 39.57093892413211 a66.28566861107205,66.28566861107205 0 0,0 -1.0017885293899345,0.5462549813095223 l -21.336773327474457 -39.9441345572014" fill="#5fff29" stroke="none" /><path d="M 109.2508944713604 118.85261126421891 l 21.920751133217735 44.672804452980365 a70.76121770956463,70.76121770956463 0 0,0 -1.0981040213535571,0.5271566619211897 l -21.148534443863948 -45.043515391401115" fill="#32ff4d" stroke="none" /><path d="M 108.59647513512805 119.15986991738527 l 23.559417185745012 52.50935546404762 a78.55239829391722,78.55239829391722 0 0,0 -1.2384321443412156,0.5428922579133144 l -22.652064366746043 -52.90711227525539" fill="#42ffd7" stroke="none" /><path d="M 106.2309692047433 120.05430185196036 l 9.903410219997708 31.874010509381907 a54.377089147164156,54.377089147164156 0 0,0 -0.8962510176632011,0.2700330795627176 l -9.35328422789426 -32.03975895805035" fill="#ffc111" stroke="none" /><path d="M 104.83641907484287 120.43548508189849 l 7.863412596836579 33.22554318159195 a55.14337384295699,55.14337384295699 0 0,0 -0.9255680082923351,0.21065626529661366 l -7.290324439151381 -33.35597618046625" fill="#ffd113" stroke="none" /><path d="M 103.41894727170886 120.7198165907248 l 10.256841815126581 62.15944977217439 a84.0,84.0 0 0,0 -1.4286565455659315,0.22312677061157693 l -9.185349405952133 -62.326794850133076" fill="#4dd2ff" stroke="none" /><line stroke="#e1ed5e" stroke-width="0.3" x1="102.19456741930631" x2="102.32365962044197" y1="184.97166512339345" y2="189.96999836594603" /><path d="M 102.22038585953345 185.97133177190398 a86.0,86.0 0 0,1 -42.740103519485714,-10.115201625700543" fill="none" id="id31" stroke="none" /><text fill="#e1ed5e" style="font-size:6.75px; font-family:Arial;" text-anchor="middle"><textPath startOffset="22.20632615414155" xlink:href="#id31">July</textPath></text><path d="M 90.7491055286396 118.85261126421891 l -10.86553394266796 22.143122293035045 a45.665313554535956,45.665313554535956 0 0,0 -0.7026936966471317,-0.35234520718072254 l 11.245081546997854 -21.95280924494502" fill="#ff0000" stroke="none" /><line stroke="#e1ed5e" stroke-width="0.3" x1="58.666819895761336" x2="56.23545636021788" y1="174.27360380694188" y2="178.64263932499728" /><path d="M 58.180547188652646 175.14741091055294 a86.0,86.0 0 0,1 -31.652253787137756,-30.449443065178592" fill="none" id="id32" stroke="none" /><text fill="#e1ed5e" style="font-size:6.75px; font-family:Arial;" text-anchor="middle"><textPath startOffset="22.20632615414155" xlink:href="#id32">August</textPath></text><path d="M 87.65650970185807 116.9893568818739 l -14.724609397839105 20.266686161185685 a46.05100177387976,46.05100177387976 0 0,0 -0.6372911067986102,-0.471452725331024 l 15.07128547505628 -20.010223487114892" fill="#ff0901" stroke="none" /><path d="M 86.79598089348748 116.32954008644616 l -15.793353396975979 19.531795229539515 a46.11814157955232,46.11814157955232 0 0,0 -0.6129976633742039,-0.5044553442885132 l 16.12722118889487 -19.25704476639382" fill="#ff0b01" stroke="none" /><path d="M 83.72743513129214 113.27417163493432 l -19.112757848724065 15.59102883582773 a45.665313554535956,45.665313554535956 0 0,0 -0.4916242588132833,-0.6133768535550487 l 19.37830001959221 -15.25972414869442" fill="#ff0000" stroke="none" /><path d="M 83.28015986056508 112.70617746262583 l -19.6380999819466 14.923897675964016 a45.665313554535956,45.665313554535956 0 0,0 -0.47021950280974373,-0.6299358661865756 l 19.892080751451427 -14.583648930268133" fill="#ff0000" stroke="none" /><line stroke="#e1ed5e" stroke-width="0.3" x1="26.63291911575756" x2="22.317208475507996" y1="142.92168965132927" y2="145.44649492493687" /><path d="M 25.769776987707644 143.4266507060508 a86.0,86.0 0 0,1 -11.730757126820373,-40.83630448921669" fill="none" id="id33" stroke="none" /><text fill="#e1ed5e" style="font-size:6.75px; font-family:Arial;" text-anchor="middle"><textPath startOffset="21.46611528233685" xlink:href="#id33">September</textPath></text><path d="M 81.69416730710424 110.29060199501025 l -21.897320516783008 12.309552587729927 a46.12006629618669,46.12006629618669 0 0,0 -0.3830679790340466,-0.6953796515628404 l 22.10596490526857 -11.930802417769263" fill="#ff0b01" stroke="none" /><path d="M 81.18737489456691 109.33194174019688 l -22.523255828727013 11.172588089927368 a46.14207186676293,46.14207186676293 0 0,0 -0.34682741796276784,-0.7145672078911827 l 22.7122365033045 -10.7832319260709" fill="#ff0b01" stroke="none" /><path d="M 80.87730276802145 108.67885076344099 l -37.857853624670334 17.181815820587175 a62.574413717568454,62.574413717568454 0 0,0 -0.4367065808582358,-0.984658052664989 l 38.14800129025985 -16.52760943142949" fill="#9fff22" stroke="none" /><line stroke="#e1ed5e" stroke-width="0.3" x1="15.007084014347285" x2="10.007500721073583" y1="101.09737516637583" y2="101.16192664675087" /><path d="M 14.007167355692545 101.11028546245083 a86.0,86.0 0 0,1 10.666146001902534,-42.60595125391555" fill="none" id="id34" stroke="none" /><text fill="#e1ed5e" style="font-size:6.75px; font-family:Arial;" text-anchor="middle"><textPath startOffset="22.20632615414155" xlink:href="#id34">October</textPath></text><line stroke="#e1ed5e" stroke-width="0.3" x1="26.266209847984243" x2="21.928928074336255" y1="57.711370442889674" y2="55.22380399835377" /><path d="M 25.398753493254645 57.213857153982495 a86.0,86.0 0 0,1 29.58750427330803,-30.492523968695096" fill="none" id="id35" stroke="none" /><text fill="#e1ed5e" style="font-size:6.75px; font-family:Arial;" text-anchor="middle"><textPath startOffset="21.46611528233685" xlink:href="#id35">November</textPath></text><line stroke="#e1ed5e" stroke-width="0.3" x1="56.762969772571076" x2="54.21961505331055" y1="26.818313649435495" y2="22.513508569990535" /><path d="M 56.25429882871897 25.957352633546506 a86.0,86.0 0 0,1 42.265352541879196,-11.944610805530505" fill="none" id="id36" stroke="none" /><text fill="#e1ed5e" style="font-size:6.75px; font-family:Arial;" text-anchor="middle"><textPath startOffset="22.20632615414155" xlink:href="#id36">December</textPath></text></svg>